<svg id="Layer_1" data-name="Layer 1" xmlns="http://www.w3.org/2000/svg" viewBox="0 0 957.69 70.46"><title>hero-image-2</title><path d="M21.13,10.56V66.19H6.63V10.56Zm29,22V43.77H13.71V32.56Zm6.75-22V66.19H42.37V10.56Z" transform="translate(-6.63 -3.14)"/><path d="M90.75,9.72a29.43,29.43,0,0,1,14.54,3.41,23.1,23.1,0,0,1,9.4,9.82A33.45,33.45,0,0,1,118,38.38a33.44,33.44,0,0,1-3.28,15.42,23.1,23.1,0,0,1-9.4,9.82A29.33,29.33,0,0,1,90.75,67a29.54,29.54,0,0,1-14.58-3.41,22.9,22.9,0,0,1-9.44-9.82,33.31,33.31,0,0,1-3.29-15.42A33.33,33.33,0,0,1,66.73,23a22.9,22.9,0,0,1,9.44-9.82A29.65,29.65,0,0,1,90.75,9.72Zm0,11.38A11.59,11.59,0,0,0,83.92,23a11.77,11.77,0,0,0-4.21,5.77,27.48,27.48,0,0,0-1.44,9.57,27.49,27.49,0,0,0,1.44,9.52,11.83,11.83,0,0,0,4.21,5.82,11.66,11.66,0,0,0,6.83,1.94,11.45,11.45,0,0,0,6.78-1.94,12,12,0,0,0,4.18-5.82,27.75,27.75,0,0,0,1.43-9.52,27.73,27.73,0,0,0-1.43-9.57A11.91,11.91,0,0,0,97.53,23,11.38,11.38,0,0,0,90.75,21.1Z" transform="translate(-6.63 -3.14)"/><path d="M139,55h27.9V66.19H124.55V10.56H139Z" transform="translate(-6.63 -3.14)"/><path d="M197.2,10.56q13.06,0,20,7.25t6.95,20.57q0,13.32-6.95,20.56t-20,7.25H173.6V10.56Zm-1.43,44.67q7.08,0,10.33-4.25t3.24-12.6q0-8.35-3.24-12.6t-10.33-4.26H188.1V55.23Z" transform="translate(-6.63 -3.14)"/><path d="M279.63,66.19A42.3,42.3,0,0,1,269.31,65a36.45,36.45,0,0,1-8.81-3.41,27,27,0,0,1-6.66-5.06l6.83-9.44a17.47,17.47,0,0,0,5.27,4.72A27.48,27.48,0,0,0,273,54.73a29,29,0,0,0,7.37,1,15,15,0,0,0,7-1.35,4.33,4.33,0,0,0,2.53-4,3.6,3.6,0,0,0-1.52-3,13.79,13.79,0,0,0-5.23-2L271.8,42.68a34.4,34.4,0,0,1-8.05-3A14.9,14.9,0,0,1,258.27,35a11.89,11.89,0,0,1-2-6.87,15.41,15.41,0,0,1,2.78-9.1,18.2,18.2,0,0,1,8-6.2,32,32,0,0,1,12.55-2.23,36,36,0,0,1,13.28,2.28,26.36,26.36,0,0,1,10,6.91l-6.58,8.51a22.51,22.51,0,0,0-17.44-7.5,17.28,17.28,0,0,0-5.48.72,6.62,6.62,0,0,0-3.12,1.94,4.13,4.13,0,0,0-1,2.73,4.2,4.2,0,0,0,.63,2.28,5.29,5.29,0,0,0,2.44,1.81,32.19,32.19,0,0,0,5.36,1.65l9.18,2q8,1.77,11.8,5.18t3.8,9.4a15.81,15.81,0,0,1-3,9.69,18,18,0,0,1-8.14,6A32.08,32.08,0,0,1,279.63,66.19Zm-4.38,7.42V3.14h8.85V73.61Z" transform="translate(-6.63 -3.14)"/><path d="M332.31,9.72a36.38,36.38,0,0,1,13.7,2.4,29.1,29.1,0,0,1,10.33,7l-7,9.35a25.42,25.42,0,0,0-7.8-5.68,22.57,22.57,0,0,0-9.48-1.9,15.76,15.76,0,0,0-5.06.67,5.5,5.5,0,0,0-2.78,1.86,4.52,4.52,0,0,0-.84,2.69,3.66,3.66,0,0,0,1.64,3,14.86,14.86,0,0,0,5.36,2.06l9.35,2.11Q348.07,35.25,352,39a13,13,0,0,1,3.88,9.86,16.33,16.33,0,0,1-3,10A18.51,18.51,0,0,1,344.45,65,33.22,33.22,0,0,1,332.31,67a44.78,44.78,0,0,1-10.62-1.22,35.22,35.22,0,0,1-9.1-3.5,28.27,28.27,0,0,1-6.83-5.22l7-9.69a22.06,22.06,0,0,0,5.18,4.34,28.21,28.21,0,0,0,6.75,3,25.9,25.9,0,0,0,7.46,1.09,17.32,17.32,0,0,0,4.93-.59,5.5,5.5,0,0,0,2.9-1.77,4.34,4.34,0,0,0,.93-2.78,4,4,0,0,0-1.26-3,10.86,10.86,0,0,0-4.81-2.06l-10.28-2.28a38.55,38.55,0,0,1-8.39-2.91,14.76,14.76,0,0,1-5.77-4.89,13.29,13.29,0,0,1-2.11-7.71,15.82,15.82,0,0,1,2.87-9.31,19.06,19.06,0,0,1,8.26-6.45A32,32,0,0,1,332.31,9.72Z" transform="translate(-6.63 -3.14)"/><path d="M388.2,9.72a29.46,29.46,0,0,1,14.54,3.41A23,23,0,0,1,412.13,23a33.33,33.33,0,0,1,3.29,15.43,33.31,33.31,0,0,1-3.29,15.42,23,23,0,0,1-9.39,9.82,32.81,32.81,0,0,1-29.13,0,23,23,0,0,1-9.44-9.82,33.44,33.44,0,0,1-3.28-15.42A33.45,33.45,0,0,1,364.17,23a23,23,0,0,1,9.44-9.82A29.71,29.71,0,0,1,388.2,9.72Zm0,11.38A11.59,11.59,0,0,0,381.37,23a11.79,11.79,0,0,0-4.22,5.77,27.73,27.73,0,0,0-1.43,9.57,27.75,27.75,0,0,0,1.43,9.52,11.84,11.84,0,0,0,4.22,5.82,11.66,11.66,0,0,0,6.83,1.94A11.48,11.48,0,0,0,395,53.72a11.89,11.89,0,0,0,4.17-5.82,27.49,27.49,0,0,0,1.44-9.52,27.48,27.48,0,0,0-1.44-9.57A11.83,11.83,0,0,0,395,23,11.4,11.4,0,0,0,388.2,21.1Z" transform="translate(-6.63 -3.14)"/><path d="M443.91,10.56q13.06,0,20,7.25t6.95,20.57q0,13.32-6.95,20.56t-20,7.25h-23.6V10.56Zm-1.43,44.67q7.08,0,10.32-4.25t3.25-12.6q0-8.35-3.25-12.6t-10.32-4.26h-7.67V55.23Z" transform="translate(-6.63 -3.14)"/><path d="M485.57,47.27c3.44,0,6.14.88,8.08,2.64a9.46,9.46,0,0,1,2.92,7.37,9.31,9.31,0,0,1-2.92,7.26c-1.94,1.76-4.64,2.64-8.08,2.64a11.64,11.64,0,0,1-8-2.64,9.21,9.21,0,0,1-3-7.26,9.35,9.35,0,0,1,3-7.37A11.64,11.64,0,0,1,485.57,47.27Z" transform="translate(-6.63 -3.14)" style="fill:#e6007a"/><path d="M531.78,66.19V10.56H575.1V21.77H546.27v11.3H569.2V43.6H546.27V55h29.92V66.19Z" transform="translate(-6.63 -3.14)"/><path d="M638.9,66.19H624l-3.88-12.56H601.06l-4,12.56H582.52l19.55-55.63h17.36ZM603.76,43.77h13.65l-6.83-22.5Z" transform="translate(-6.63 -3.14)"/><path d="M671.94,10.56q9.94,0,15.47,4.68a15.48,15.48,0,0,1,5.52,12.43q0,8.52-5.48,13T672,45.12l-1.35.76h-11V66.19H645.39V10.56Zm-2,25q4.22,0,6.32-1.68t2.11-5.4q0-3.61-2.11-5.31t-6.32-1.68H659.64V35.59Zm8.51,3,17.79,27.56h-16L666,41.83Z" transform="translate(-6.63 -3.14)"/><path d="M751.93,10.56V66.19h-16.1L718.56,36.1l-4.22-8.26h-.08l.33,10.28V66.19H701.78V10.56h16.1l17.28,30.09,4.21,8.26h.09l-.34-10.28V10.56Z" transform="translate(-6.63 -3.14)"/><path d="M812,10.56q13.06,0,20,7.25t7,20.57q0,13.32-7,20.56t-20,7.25h-23.6V10.56Zm-1.44,44.67q7.08,0,10.33-4.25t3.24-12.6q0-8.35-3.24-12.6t-10.33-4.26h-7.67V55.23Z" transform="translate(-6.63 -3.14)"/><path d="M872.13,9.72a29.46,29.46,0,0,1,14.54,3.41A23,23,0,0,1,896.06,23a33.45,33.45,0,0,1,3.29,15.43,33.44,33.44,0,0,1-3.29,15.42,23,23,0,0,1-9.39,9.82,32.81,32.81,0,0,1-29.13,0,23,23,0,0,1-9.44-9.82,33.44,33.44,0,0,1-3.28-15.42A33.45,33.45,0,0,1,848.1,23a23,23,0,0,1,9.44-9.82A29.69,29.69,0,0,1,872.13,9.72Zm0,11.38A11.59,11.59,0,0,0,865.3,23a11.79,11.79,0,0,0-4.22,5.77,27.73,27.73,0,0,0-1.43,9.57,27.75,27.75,0,0,0,1.43,9.52,11.84,11.84,0,0,0,4.22,5.82,11.66,11.66,0,0,0,6.83,1.94,11.48,11.48,0,0,0,6.78-1.94,11.89,11.89,0,0,0,4.17-5.82,27.49,27.49,0,0,0,1.44-9.52,27.48,27.48,0,0,0-1.44-9.57A11.83,11.83,0,0,0,878.91,23,11.4,11.4,0,0,0,872.13,21.1Z" transform="translate(-6.63 -3.14)"/><path d="M952.12,10.56V21.77H934V66.19H919.5V21.77H901.29V10.56Z" transform="translate(-6.63 -3.14)"/><path d="M953.32,47.27c3.44,0,6.14.88,8.08,2.64a9.46,9.46,0,0,1,2.92,7.37,9.31,9.31,0,0,1-2.92,7.26c-1.94,1.76-4.64,2.64-8.08,2.64a11.64,11.64,0,0,1-8-2.64,9.21,9.21,0,0,1-3-7.26,9.35,9.35,0,0,1,3-7.37A11.64,11.64,0,0,1,953.32,47.27Z" transform="translate(-6.63 -3.14)" style="fill:#e6007a"/></svg>